<?xml version="1.0" standalone="no"?>
<!DOCTYPE svg PUBLIC "-//W3C//DTD SVG 20010904//EN"
 "http://www.w3.org/TR/2001/REC-SVG-20010904/DTD/svg10.dtd">
<svg version="1.0" xmlns="http://www.w3.org/2000/svg"
 width="750.000000pt" height="550.000000pt" viewBox="0 0 750.000000 550.000000"
 preserveAspectRatio="xMidYMid meet">

<g transform="translate(0.000000,550.000000) scale(0.100000,-0.100000)"
fill="#000000" stroke="none">
<path d="M6192 4828 c-16 -46 -382 -1041 -812 -2213 -431 -1172 -785 -2138
-787 -2148 -5 -16 21 -17 439 -17 l443 0 784 2153 c432 1183 797 2187 813
2230 l28 77 -439 0 -439 0 -30 -82z"/>
<path d="M611 2568 c22 -62 203 -563 402 -1113 l363 -1000 447 -3 c246 -1 447
0 447 3 0 4 -793 2150 -815 2208 -7 16 -37 17 -446 17 l-439 0 41 -112z"/>
<path d="M3612 2653 c-5 -16 -179 -494 -387 -1063 -208 -569 -386 -1059 -396
-1087 l-18 -53 443 0 442 0 377 1033 c207 567 390 1069 407 1115 l30 82 -444
0 -444 0 -10 -27z"/>
</g>
</svg>
