<?xml version="1.0" encoding="UTF-8"?>
<svg xmlns="http://www.w3.org/2000/svg" xmlns:xlink="http://www.w3.org/1999/xlink" width="46pt" height="34pt" viewBox="0 0 46 34" version="1.1">
<g id="surface1">
<path style=" stroke:none;fill-rule:nonzero;fill:rgb(0%,0%,0%);fill-opacity:1;" d="M 37.957031 4.152344 C 37.859375 4.433594 35.617188 10.582031 32.980469 17.820312 C 30.335938 25.0625 28.167969 31.027344 28.15625 31.089844 C 28.125 31.1875 28.285156 31.195312 30.847656 31.195312 L 33.5625 31.195312 L 38.367188 17.894531 C 41.015625 10.589844 43.253906 4.386719 43.351562 4.121094 L 43.523438 3.644531 L 38.140625 3.644531 Z M 37.957031 4.152344 "/>
<path style=" stroke:none;fill-rule:nonzero;fill:rgb(0%,0%,0%);fill-opacity:1;" d="M 3.746094 18.113281 C 3.878906 18.496094 4.988281 21.589844 6.210938 24.988281 L 8.433594 31.164062 L 11.175781 31.183594 C 12.683594 31.1875 13.914062 31.183594 13.914062 31.164062 C 13.914062 31.140625 9.054688 17.882812 8.917969 17.523438 C 8.875 17.425781 8.691406 17.421875 6.183594 17.421875 L 3.492188 17.421875 Z M 3.746094 18.113281 "/>
<path style=" stroke:none;fill-rule:nonzero;fill:rgb(0%,0%,0%);fill-opacity:1;" d="M 22.140625 17.585938 C 22.109375 17.6875 21.042969 20.636719 19.769531 24.152344 C 18.496094 27.667969 17.402344 30.695312 17.34375 30.867188 L 17.230469 31.195312 L 22.65625 31.195312 L 24.96875 24.8125 C 26.238281 21.3125 27.359375 18.210938 27.460938 17.925781 L 27.648438 17.421875 L 22.203125 17.421875 Z M 22.140625 17.585938 "/>
</g>
</svg>
